<svg width="50" height="50" viewBox="0 0 50 50" fill="none" xmlns="http://www.w3.org/2000/svg">
<path d="M29.2891 15.5155C29.2891 15.4608 29.5703 15.2811 30.4688 15.2811H33.4062C33.6356 15.2843 33.8633 15.2416 34.076 15.1558C34.2887 15.0699 34.4822 14.9425 34.6451 14.7811C34.808 14.6196 34.9371 14.4273 35.0249 14.2154C35.1127 14.0034 35.1573 13.7761 35.1562 13.5468V8.42176C35.1604 8.19334 35.1194 7.96636 35.0355 7.75384C34.9517 7.54133 34.8267 7.34747 34.6677 7.18341C34.5087 7.01935 34.3189 6.88831 34.1091 6.79782C33.8993 6.70734 33.6737 6.65919 33.4453 6.65614H29.0703C27.8562 6.61452 26.6462 6.82022 25.5141 7.26074C24.3819 7.70125 23.3511 8.36738 22.4844 9.21864C21.6449 10.1242 20.9926 11.1867 20.5649 12.345C20.1372 13.5034 19.9426 14.7348 19.9922 15.9686V20.6171H16.5937C16.365 20.616 16.1382 20.6601 15.9264 20.7467C15.7147 20.8333 15.522 20.9608 15.3595 21.1218C15.197 21.2829 15.0679 21.4744 14.9794 21.6853C14.8909 21.8963 14.8448 22.1227 14.8438 22.3515V27.8749C14.8438 28.3328 15.0257 28.772 15.3494 29.0958C15.6732 29.4195 16.1124 29.6015 16.5703 29.6015H19.9141V41.5936C19.9078 42.0523 20.0835 42.4948 20.4027 42.8242C20.7219 43.1537 21.1586 43.3432 21.6172 43.3515H27.3594C27.5868 43.3515 27.8119 43.3065 28.0219 43.2193C28.2319 43.132 28.4226 43.0042 28.583 42.843C28.7434 42.6818 28.8705 42.4906 28.9568 42.2802C29.0431 42.0698 29.087 41.8445 29.0859 41.6171V29.6405H33.1719C33.6312 29.6385 34.0712 29.4551 34.396 29.1303C34.7208 28.8054 34.9042 28.3655 34.9063 27.9061V22.3749C34.9063 22.1475 34.8613 21.9223 34.7741 21.7124C34.6868 21.5024 34.5589 21.3117 34.3978 21.1513C34.2366 20.9908 34.0454 20.8638 33.835 20.7775C33.6246 20.6912 33.3993 20.6473 33.1719 20.6483H29.1094V16.578C29.0658 16.2139 29.1282 15.845 29.2891 15.5155Z" stroke="#04704B" stroke-width="2" stroke-linecap="round"/>
</svg>
