<svg width="50" height="50" viewBox="0 0 50 50" fill="none" xmlns="http://www.w3.org/2000/svg">
<path d="M46.233 6.83891C46.233 6.74672 46.1501 6.69141 46.0763 6.75594C44.629 8.00969 41.1351 9.02375 40.6926 9.06985C40.6795 9.0757 40.6654 9.07872 40.6511 9.07872C40.6368 9.07872 40.6226 9.0757 40.6096 9.06985C38.0468 4.97672 32.1376 6.08297 32.1376 6.08297C23.4535 7.92672 24.4122 16.703 24.5782 17.6248C24.5782 17.6709 24.5782 17.7078 24.4952 17.7078C14.834 18.1872 6.3988 9.20813 5.44005 8.14797C5.43054 8.13639 5.41858 8.12706 5.40503 8.12066C5.39148 8.11425 5.37668 8.11093 5.36169 8.11093C5.34671 8.11093 5.33191 8.11425 5.31836 8.12066C5.30481 8.12706 5.29285 8.13639 5.28333 8.14797C4.19915 10.1579 3.85535 12.4848 4.31197 14.7224C4.76858 16.9599 5.9966 18.9661 7.78161 20.3905C7.79692 20.3994 7.80961 20.4122 7.81844 20.4276C7.82726 20.4429 7.8319 20.4603 7.8319 20.4781C7.8319 20.4958 7.82726 20.5132 7.81844 20.5285C7.80961 20.5439 7.79692 20.5567 7.78161 20.5656C6.52256 20.5263 5.2778 20.2867 4.09411 19.8558C4.0388 19.8558 3.97427 19.8558 3.97427 19.948C4.10333 25.6636 9.70833 28.2448 11.0082 28.7888C11.0266 28.7948 11.0427 28.8065 11.0541 28.8223C11.0654 28.838 11.0716 28.8569 11.0716 28.8763C11.0716 28.8957 11.0654 28.9147 11.0541 28.9304C11.0427 28.9461 11.0266 28.9578 11.0082 28.9639C9.84331 29.2177 8.64784 29.3015 7.45896 29.2128C7.44296 29.2122 7.42704 29.2154 7.41251 29.2221C7.39798 29.2288 7.38525 29.2389 7.37536 29.2515C7.36546 29.2641 7.35869 29.2788 7.3556 29.2946C7.3525 29.3103 7.35317 29.3265 7.35755 29.3419C8.52833 33.7484 14.2716 35.5922 15.3041 35.8964C15.3214 35.9001 15.3374 35.9082 15.3506 35.92C15.3638 35.9318 15.3737 35.9468 15.3793 35.9635C15.3849 35.9803 15.386 35.9983 15.3825 36.0156C15.379 36.0329 15.3711 36.049 15.3594 36.0624C11.8102 39.2336 4.81318 40.0725 3.37505 40.22C3.35594 40.2225 3.33795 40.2305 3.32319 40.2429C3.30842 40.2553 3.2975 40.2716 3.29169 40.29C3.28589 40.3084 3.28544 40.328 3.29041 40.3467C3.29538 40.3653 3.30555 40.3821 3.31974 40.3952C8.68505 44.0827 22.7344 47.1433 33.4651 37.9706C36.6374 35.2058 39.1441 31.76 40.7979 27.8906C42.4516 24.0211 43.2098 19.828 43.0157 15.6244C43.0158 15.609 43.0201 15.594 43.0283 15.581C43.0364 15.568 43.048 15.5575 43.0618 15.5506C44.9889 14.4188 46.5946 12.813 47.7265 10.8859C47.7265 10.7938 47.7265 10.7384 47.5882 10.7661C46.6549 11.094 45.6474 11.1484 44.6843 10.9228C44.6843 10.9228 46.2607 8.19407 46.233 6.83891Z" stroke="#04704B" stroke-width="2" stroke-linecap="round"/>
</svg>
