<svg width="50" height="50" viewBox="0 0 50 50" fill="none" xmlns="http://www.w3.org/2000/svg">
<path d="M33.287 4.49902H16.7129C10.4295 4.49902 5.33575 9.59939 5.33575 15.891V34.1853C5.33575 40.4769 10.4295 45.5773 16.7129 45.5773H33.287C39.5705 45.5773 44.6642 40.4769 44.6642 34.1853V15.891C44.6642 9.59939 39.5705 4.49902 33.287 4.49902Z" stroke="url(#paint0_linear_597526_946)" stroke-width="2" stroke-linecap="round"/>
<path d="M24.9999 35.072C30.5375 35.072 35.0265 30.5771 35.0265 25.0324C35.0265 19.4876 30.5375 14.9927 24.9999 14.9927C19.4624 14.9927 14.9733 19.4876 14.9733 25.0324C14.9733 30.5771 19.4624 35.072 24.9999 35.072Z" stroke="url(#paint1_linear_597526_946)" stroke-width="2" stroke-linecap="round"/>
<path d="M37.0038 13.1964C37.7914 13.1964 38.43 12.5571 38.43 11.7684C38.43 10.9797 37.7914 10.3403 37.0038 10.3403C36.2161 10.3403 35.5776 10.9797 35.5776 11.7684C35.5776 12.5571 36.2161 13.1964 37.0038 13.1964Z" stroke="url(#paint2_linear_597526_946)" stroke-width="2"/>
<defs>
<linearGradient id="paint0_linear_597526_946" x1="5.33575" y1="25.0382" x2="44.6642" y2="25.0382" gradientUnits="userSpaceOnUse">
<stop stop-color="#2313C8"/>
<stop offset="1" stop-color="#8808D4"/>
</linearGradient>
<linearGradient id="paint1_linear_597526_946" x1="14.9733" y1="25.0323" x2="35.0265" y2="25.0323" gradientUnits="userSpaceOnUse">
<stop stop-color="#2313C8"/>
<stop offset="1" stop-color="#8808D4"/>
</linearGradient>
<linearGradient id="paint2_linear_597526_946" x1="35.5776" y1="11.7684" x2="38.43" y2="11.7684" gradientUnits="userSpaceOnUse">
<stop stop-color="#2313C8"/>
<stop offset="1" stop-color="#8808D4"/>
</linearGradient>
</defs>
</svg>
