<svg width="50" height="50" viewBox="0 0 50 50" fill="none" xmlns="http://www.w3.org/2000/svg">
<path d="M27.4379 16.958H20.2415V42.986H27.6946V31.061C27.6946 27.8975 28.2908 24.8583 32.1913 24.8583C36.0918 24.8583 36.1 28.4524 36.1 31.2597V42.986H43.5532V29.678C43.5532 23.2518 42.1868 17.3224 34.6011 17.3224C31.8021 17.2147 29.0941 17.7282 27.5869 20.0138C27.5783 20.0343 27.5624 20.0509 27.5423 20.0606C27.5223 20.0702 27.4994 20.0721 27.478 20.066C27.4566 20.0599 27.4381 20.0461 27.4262 20.0274C27.4142 20.0086 27.4095 19.9861 27.413 19.9641L27.4379 16.958Z" stroke="#04704B" stroke-width="2" stroke-linecap="round"/>
<path d="M8.04309 16.958H15.5625V42.986H8.04309V16.958Z" stroke="#04704B" stroke-width="2" stroke-linecap="round"/>
<path d="M11.7863 4.01419C10.9231 4.01092 10.0784 4.26368 9.35888 4.7405C8.63938 5.21732 8.07742 5.89679 7.74409 6.69299C7.41075 7.48919 7.321 8.36635 7.48618 9.21355C7.65136 10.0608 8.06406 10.84 8.67208 11.4526C9.28011 12.0653 10.0561 12.4839 10.9021 12.6555C11.748 12.8271 12.6258 12.744 13.4245 12.4167C14.2232 12.0894 14.9069 11.5326 15.3892 10.8168C15.8715 10.1009 16.1306 9.25812 16.1339 8.39497V8.39497C16.1383 7.82125 16.0291 7.25233 15.8125 6.72102C15.596 6.18971 15.2765 5.70651 14.8723 5.29928C14.4681 4.89205 13.9874 4.56884 13.4577 4.34828C12.9281 4.12772 12.36 4.01417 11.7863 4.01419V4.01419Z" stroke="#04704B" stroke-width="2" stroke-linecap="round"/>
</svg>
