<svg class="border shadow-md" viewBox="0 0 826.0266666666666 464.64" style="width: 826.027px; height: 464.64px;" xmlns="http://www.w3.org/2000/svg" preserveAspectRatio="none"><rect class="bg" id="bg" x="0" y="0" width="826.0266666666666" height="464.64" fill="#ffffff"/><g><path d="M 0 -35.33176470588235V -21.19905882352941 H 20.146991869918697 V -14.13270588235294 H 40.293983739837394 V -28.26541176470588 H 60.440975609756094 V -42.39811764705882 H 80.58796747967479 V -49.46447058823529 H 100.73495934959348 V -35.33176470588235 H 120.88195121951219 V -28.26541176470588 H 141.02894308943087 V -14.13270588235294 H 161.17593495934958 V -35.33176470588235 H 181.32292682926828 V -14.13270588235294 H 201.46991869918696 V -21.19905882352941 H 221.61691056910567 V -21.19905882352941 H 241.76390243902438 V -14.13270588235294 H 261.91089430894306 V -28.26541176470588 H 282.05788617886174 V -49.46447058823529 H 302.2048780487805 V -56.53082352941176 H 322.35186991869915 V -21.19905882352941 H 342.49886178861783 V -56.53082352941176 H 362.64585365853657 V -14.13270588235294 H 382.79284552845525 V -28.26541176470588 H 402.9398373983739 V -42.39811764705882 H 423.08682926829266 V -49.46447058823529 H 443.23382113821134 V -49.46447058823529 H 463.38081300813 V -28.26541176470588 H 483.52780487804876 V -35.33176470588235 H 503.67479674796743 V -35.33176470588235 H 523.8217886178861 V -35.33176470588235 H 543.9687804878048 V -28.26541176470588 H 564.1157723577235 V -49.46447058823529 H 584.2627642276423 V -35.33176470588235 H 604.409756097561 V -35.33176470588235 H 624.5567479674796 V -56.53082352941176 H 644.7037398373983 V -35.33176470588235 H 664.850731707317 V -28.26541176470588 H 684.9977235772357 V -14.13270588235294 H 705.1447154471543 V -49.46447058823529 H 725.2917073170731 V -42.39811764705882 H 745.4386991869918 V -21.19905882352941 H 765.5856910569105 V -35.33176470588235 H 785.7326829268292 V -14.13270588235294 H 805.8796747967478 V -21.19905882352941 H 826.0266666666665 V 465.64 H 0 V -35.33176470588235 Z" fill="#007950"/></g><g><path d="M 0 0V 14.13270588235294 H 20.146991869918697 V 21.19905882352941 H 40.293983739837394 V -14.13270588235294 H 60.440975609756094 V 14.13270588235294 H 80.58796747967479 V 0 H 100.73495934959348 V 7.06635294117647 H 120.88195121951219 V -14.13270588235294 H 141.02894308943087 V -21.19905882352941 H 161.17593495934958 V 21.19905882352941 H 181.32292682926828 V 0 H 201.46991869918696 V -21.19905882352941 H 221.61691056910567 V 7.06635294117647 H 241.76390243902438 V -14.13270588235294 H 261.91089430894306 V -21.19905882352941 H 282.05788617886174 V 21.19905882352941 H 302.2048780487805 V 21.19905882352941 H 322.35186991869915 V 0 H 342.49886178861783 V 21.19905882352941 H 362.64585365853657 V -14.13270588235294 H 382.79284552845525 V 21.19905882352941 H 402.9398373983739 V -21.19905882352941 H 423.08682926829266 V 14.13270588235294 H 443.23382113821134 V -14.13270588235294 H 463.38081300813 V -14.13270588235294 H 483.52780487804876 V 14.13270588235294 H 503.67479674796743 V 7.06635294117647 H 523.8217886178861 V 7.06635294117647 H 543.9687804878048 V 7.06635294117647 H 564.1157723577235 V 0 H 584.2627642276423 V 14.13270588235294 H 604.409756097561 V 0 H 624.5567479674796 V 21.19905882352941 H 644.7037398373983 V 21.19905882352941 H 664.850731707317 V -7.06635294117647 H 684.9977235772357 V 21.19905882352941 H 705.1447154471543 V 0 H 725.2917073170731 V -21.19905882352941 H 745.4386991869918 V 14.13270588235294 H 765.5856910569105 V 14.13270588235294 H 785.7326829268292 V 14.13270588235294 H 805.8796747967478 V -7.06635294117647 H 826.0266666666665 V 465.64 H 0 V 0 Z" fill="#007350"/></g><g><path d="M 0 35.33176470588235V 14.13270588235294 H 20.146991869918697 V 14.13270588235294 H 40.293983739837394 V 35.33176470588235 H 60.440975609756094 V 42.39811764705882 H 80.58796747967479 V 28.26541176470588 H 100.73495934959348 V 49.46447058823529 H 120.88195121951219 V 42.39811764705882 H 141.02894308943087 V 42.39811764705882 H 161.17593495934958 V 14.13270588235294 H 181.32292682926828 V 14.13270588235294 H 201.46991869918696 V 49.46447058823529 H 221.61691056910567 V 49.46447058823529 H 241.76390243902438 V 42.39811764705882 H 261.91089430894306 V 42.39811764705882 H 282.05788617886174 V 21.19905882352941 H 302.2048780487805 V 35.33176470588235 H 322.35186991869915 V 49.46447058823529 H 342.49886178861783 V 49.46447058823529 H 362.64585365853657 V 35.33176470588235 H 382.79284552845525 V 49.46447058823529 H 402.9398373983739 V 56.53082352941176 H 423.08682926829266 V 35.33176470588235 H 443.23382113821134 V 21.19905882352941 H 463.38081300813 V 14.13270588235294 H 483.52780487804876 V 49.46447058823529 H 503.67479674796743 V 35.33176470588235 H 523.8217886178861 V 21.19905882352941 H 543.9687804878048 V 35.33176470588235 H 564.1157723577235 V 49.46447058823529 H 584.2627642276423 V 56.53082352941176 H 604.409756097561 V 49.46447058823529 H 624.5567479674796 V 21.19905882352941 H 644.7037398373983 V 42.39811764705882 H 664.850731707317 V 35.33176470588235 H 684.9977235772357 V 42.39811764705882 H 705.1447154471543 V 49.46447058823529 H 725.2917073170731 V 14.13270588235294 H 745.4386991869918 V 42.39811764705882 H 765.5856910569105 V 28.26541176470588 H 785.7326829268292 V 56.53082352941176 H 805.8796747967478 V 28.26541176470588 H 826.0266666666665 V 465.64 H 0 V 35.33176470588235 Z" fill="#006d50"/></g><g><path d="M 0 70.6635294117647V 84.79623529411764 H 20.146991869918697 V 91.86258823529411 H 40.293983739837394 V 84.79623529411764 H 60.440975609756094 V 91.86258823529411 H 80.58796747967479 V 77.72988235294117 H 100.73495934959348 V 56.53082352941176 H 120.88195121951219 V 70.6635294117647 H 141.02894308943087 V 56.53082352941176 H 161.17593495934958 V 77.72988235294117 H 181.32292682926828 V 84.79623529411764 H 201.46991869918696 V 63.59717647058823 H 221.61691056910567 V 70.6635294117647 H 241.76390243902438 V 70.6635294117647 H 261.91089430894306 V 70.6635294117647 H 282.05788617886174 V 49.46447058823529 H 302.2048780487805 V 84.79623529411764 H 322.35186991869915 V 84.79623529411764 H 342.49886178861783 V 77.72988235294117 H 362.64585365853657 V 84.79623529411764 H 382.79284552845525 V 56.53082352941176 H 402.9398373983739 V 91.86258823529411 H 423.08682926829266 V 77.72988235294117 H 443.23382113821134 V 77.72988235294117 H 463.38081300813 V 77.72988235294117 H 483.52780487804876 V 77.72988235294117 H 503.67479674796743 V 70.6635294117647 H 523.8217886178861 V 70.6635294117647 H 543.9687804878048 V 84.79623529411764 H 564.1157723577235 V 70.6635294117647 H 584.2627642276423 V 77.72988235294117 H 604.409756097561 V 91.86258823529411 H 624.5567479674796 V 63.59717647058823 H 644.7037398373983 V 63.59717647058823 H 664.850731707317 V 91.86258823529411 H 684.9977235772357 V 70.6635294117647 H 705.1447154471543 V 77.72988235294117 H 725.2917073170731 V 70.6635294117647 H 745.4386991869918 V 49.46447058823529 H 765.5856910569105 V 91.86258823529411 H 785.7326829268292 V 84.79623529411764 H 805.8796747967478 V 70.6635294117647 H 826.0266666666665 V 465.64 H 0 V 70.6635294117647 Z" fill="#006750"/></g><g><path d="M 0 105.99529411764705V 113.06164705882352 H 20.146991869918697 V 98.92894117647057 H 40.293983739837394 V 105.99529411764705 H 60.440975609756094 V 105.99529411764705 H 80.58796747967479 V 120.12799999999999 H 100.73495934959348 V 127.19435294117646 H 120.88195121951219 V 105.99529411764705 H 141.02894308943087 V 105.99529411764705 H 161.17593495934958 V 113.06164705882352 H 181.32292682926828 V 84.79623529411764 H 201.46991869918696 V 113.06164705882352 H 221.61691056910567 V 120.12799999999999 H 241.76390243902438 V 105.99529411764705 H 261.91089430894306 V 91.86258823529411 H 282.05788617886174 V 120.12799999999999 H 302.2048780487805 V 84.79623529411764 H 322.35186991869915 V 105.99529411764705 H 342.49886178861783 V 127.19435294117646 H 362.64585365853657 V 113.06164705882352 H 382.79284552845525 V 127.19435294117646 H 402.9398373983739 V 84.79623529411764 H 423.08682926829266 V 105.99529411764705 H 443.23382113821134 V 105.99529411764705 H 463.38081300813 V 91.86258823529411 H 483.52780487804876 V 127.19435294117646 H 503.67479674796743 V 127.19435294117646 H 523.8217886178861 V 98.92894117647057 H 543.9687804878048 V 113.06164705882352 H 564.1157723577235 V 127.19435294117646 H 584.2627642276423 V 127.19435294117646 H 604.409756097561 V 105.99529411764705 H 624.5567479674796 V 120.12799999999999 H 644.7037398373983 V 98.92894117647057 H 664.850731707317 V 120.12799999999999 H 684.9977235772357 V 91.86258823529411 H 705.1447154471543 V 91.86258823529411 H 725.2917073170731 V 84.79623529411764 H 745.4386991869918 V 127.19435294117646 H 765.5856910569105 V 105.99529411764705 H 785.7326829268292 V 105.99529411764705 H 805.8796747967478 V 91.86258823529411 H 826.0266666666665 V 465.64 H 0 V 105.99529411764705 Z" fill="#006150"/></g><g><path d="M 0 141.3270588235294V 120.12799999999999 H 20.146991869918697 V 134.26070588235294 H 40.293983739837394 V 134.26070588235294 H 60.440975609756094 V 155.45976470588235 H 80.58796747967479 V 141.3270588235294 H 100.73495934959348 V 141.3270588235294 H 120.88195121951219 V 148.39341176470586 H 141.02894308943087 V 162.5261176470588 H 161.17593495934958 V 127.19435294117646 H 181.32292682926828 V 155.45976470588235 H 201.46991869918696 V 155.45976470588235 H 221.61691056910567 V 134.26070588235294 H 241.76390243902438 V 155.45976470588235 H 261.91089430894306 V 148.39341176470586 H 282.05788617886174 V 141.3270588235294 H 302.2048780487805 V 162.5261176470588 H 322.35186991869915 V 155.45976470588235 H 342.49886178861783 V 148.39341176470586 H 362.64585365853657 V 162.5261176470588 H 382.79284552845525 V 134.26070588235294 H 402.9398373983739 V 162.5261176470588 H 423.08682926829266 V 148.39341176470586 H 443.23382113821134 V 141.3270588235294 H 463.38081300813 V 141.3270588235294 H 483.52780487804876 V 127.19435294117646 H 503.67479674796743 V 127.19435294117646 H 523.8217886178861 V 141.3270588235294 H 543.9687804878048 V 148.39341176470586 H 564.1157723577235 V 120.12799999999999 H 584.2627642276423 V 148.39341176470586 H 604.409756097561 V 141.3270588235294 H 624.5567479674796 V 162.5261176470588 H 644.7037398373983 V 141.3270588235294 H 664.850731707317 V 120.12799999999999 H 684.9977235772357 V 141.3270588235294 H 705.1447154471543 V 134.26070588235294 H 725.2917073170731 V 141.3270588235294 H 745.4386991869918 V 148.39341176470586 H 765.5856910569105 V 127.19435294117646 H 785.7326829268292 V 141.3270588235294 H 805.8796747967478 V 127.19435294117646 H 826.0266666666665 V 465.64 H 0 V 141.3270588235294 Z" fill="#005b50"/></g><g><path d="M 0 176.65882352941173V 169.59247058823527 H 20.146991869918697 V 190.79152941176469 H 40.293983739837394 V 155.45976470588232 H 60.440975609756094 V 176.65882352941173 H 80.58796747967479 V 176.65882352941173 H 100.73495934959348 V 190.79152941176469 H 120.88195121951219 V 183.7251764705882 H 141.02894308943087 V 183.7251764705882 H 161.17593495934958 V 169.59247058823527 H 181.32292682926828 V 155.45976470588232 H 201.46991869918696 V 197.85788235294115 H 221.61691056910567 V 197.85788235294115 H 241.76390243902438 V 162.52611764705878 H 261.91089430894306 V 176.65882352941173 H 282.05788617886174 V 183.7251764705882 H 302.2048780487805 V 197.85788235294115 H 322.35186991869915 V 169.59247058823527 H 342.49886178861783 V 190.79152941176469 H 362.64585365853657 V 155.45976470588232 H 382.79284552845525 V 176.65882352941173 H 402.9398373983739 V 183.7251764705882 H 423.08682926829266 V 190.79152941176469 H 443.23382113821134 V 176.65882352941173 H 463.38081300813 V 183.7251764705882 H 483.52780487804876 V 183.7251764705882 H 503.67479674796743 V 155.45976470588232 H 523.8217886178861 V 176.65882352941173 H 543.9687804878048 V 176.65882352941173 H 564.1157723577235 V 190.79152941176469 H 584.2627642276423 V 176.65882352941173 H 604.409756097561 V 176.65882352941173 H 624.5567479674796 V 197.85788235294115 H 644.7037398373983 V 176.65882352941173 H 664.850731707317 V 190.79152941176469 H 684.9977235772357 V 176.65882352941173 H 705.1447154471543 V 176.65882352941173 H 725.2917073170731 V 190.79152941176469 H 745.4386991869918 V 176.65882352941173 H 765.5856910569105 V 190.79152941176469 H 785.7326829268292 V 176.65882352941173 H 805.8796747967478 V 190.79152941176469 H 826.0266666666665 V 465.64 H 0 V 176.65882352941173 Z" fill="#005550"/></g><g><path d="M 0 211.9905882352941V 233.1896470588235 H 20.146991869918697 V 226.12329411764705 H 40.293983739837394 V 190.79152941176469 H 60.440975609756094 V 219.05694117647056 H 80.58796747967479 V 204.92423529411764 H 100.73495934959348 V 211.9905882352941 H 120.88195121951219 V 226.12329411764705 H 141.02894308943087 V 211.9905882352941 H 161.17593495934958 V 211.9905882352941 H 181.32292682926828 V 211.9905882352941 H 201.46991869918696 V 204.92423529411764 H 221.61691056910567 V 233.1896470588235 H 241.76390243902438 V 226.12329411764705 H 261.91089430894306 V 233.1896470588235 H 282.05788617886174 V 233.1896470588235 H 302.2048780487805 V 204.92423529411764 H 322.35186991869915 V 211.9905882352941 H 342.49886178861783 V 226.12329411764705 H 362.64585365853657 V 226.12329411764705 H 382.79284552845525 V 211.9905882352941 H 402.9398373983739 V 219.05694117647056 H 423.08682926829266 V 226.12329411764705 H 443.23382113821134 V 219.05694117647056 H 463.38081300813 V 233.1896470588235 H 483.52780487804876 V 211.9905882352941 H 503.67479674796743 V 233.1896470588235 H 523.8217886178861 V 219.05694117647056 H 543.9687804878048 V 190.79152941176469 H 564.1157723577235 V 226.12329411764705 H 584.2627642276423 V 211.9905882352941 H 604.409756097561 V 233.1896470588235 H 624.5567479674796 V 219.05694117647056 H 644.7037398373983 V 204.92423529411764 H 664.850731707317 V 204.92423529411764 H 684.9977235772357 V 226.12329411764705 H 705.1447154471543 V 211.9905882352941 H 725.2917073170731 V 219.05694117647056 H 745.4386991869918 V 197.85788235294115 H 765.5856910569105 V 211.9905882352941 H 785.7326829268292 V 233.1896470588235 H 805.8796747967478 V 197.85788235294115 H 826.0266666666665 V 465.64 H 0 V 211.9905882352941 Z" fill="#004f50"/></g><g><path d="M 0 247.32235294117646V 261.4550588235294 H 20.146991869918697 V 261.4550588235294 H 40.293983739837394 V 261.4550588235294 H 60.440975609756094 V 268.5214117647059 H 80.58796747967479 V 261.4550588235294 H 100.73495934959348 V 233.1896470588235 H 120.88195121951219 V 254.38870588235292 H 141.02894308943087 V 247.32235294117646 H 161.17593495934958 V 233.1896470588235 H 181.32292682926828 V 268.5214117647059 H 201.46991869918696 V 254.38870588235292 H 221.61691056910567 V 268.5214117647059 H 241.76390243902438 V 233.1896470588235 H 261.91089430894306 V 226.12329411764705 H 282.05788617886174 V 226.12329411764705 H 302.2048780487805 V 268.5214117647059 H 322.35186991869915 V 247.32235294117646 H 342.49886178861783 V 254.38870588235292 H 362.64585365853657 V 268.5214117647059 H 382.79284552845525 V 254.38870588235292 H 402.9398373983739 V 247.32235294117646 H 423.08682926829266 V 226.12329411764705 H 443.23382113821134 V 233.1896470588235 H 463.38081300813 V 247.32235294117646 H 483.52780487804876 V 240.256 H 503.67479674796743 V 261.4550588235294 H 523.8217886178861 V 247.32235294117646 H 543.9687804878048 V 261.4550588235294 H 564.1157723577235 V 233.1896470588235 H 584.2627642276423 V 247.32235294117646 H 604.409756097561 V 247.32235294117646 H 624.5567479674796 V 261.4550588235294 H 644.7037398373983 V 247.32235294117646 H 664.850731707317 V 247.32235294117646 H 684.9977235772357 V 247.32235294117646 H 705.1447154471543 V 268.5214117647059 H 725.2917073170731 V 240.256 H 745.4386991869918 V 268.5214117647059 H 765.5856910569105 V 268.5214117647059 H 785.7326829268292 V 268.5214117647059 H 805.8796747967478 V 240.256 H 826.0266666666665 V 465.64 H 0 V 247.32235294117646 Z" fill="#004950"/></g><g><path d="M 0 282.6541176470588V 282.6541176470588 H 20.146991869918697 V 296.7868235294117 H 40.293983739837394 V 275.5877647058823 H 60.440975609756094 V 282.6541176470588 H 80.58796747967479 V 282.6541176470588 H 100.73495934959348 V 289.7204705882353 H 120.88195121951219 V 268.5214117647059 H 141.02894308943087 V 282.6541176470588 H 161.17593495934958 V 282.6541176470588 H 181.32292682926828 V 275.5877647058823 H 201.46991869918696 V 303.8531764705882 H 221.61691056910567 V 296.7868235294117 H 241.76390243902438 V 261.4550588235294 H 261.91089430894306 V 289.7204705882353 H 282.05788617886174 V 282.6541176470588 H 302.2048780487805 V 282.6541176470588 H 322.35186991869915 V 303.8531764705882 H 342.49886178861783 V 303.8531764705882 H 362.64585365853657 V 303.8531764705882 H 382.79284552845525 V 289.7204705882353 H 402.9398373983739 V 268.5214117647059 H 423.08682926829266 V 296.7868235294117 H 443.23382113821134 V 282.6541176470588 H 463.38081300813 V 261.4550588235294 H 483.52780487804876 V 282.6541176470588 H 503.67479674796743 V 296.7868235294117 H 523.8217886178861 V 303.8531764705882 H 543.9687804878048 V 296.7868235294117 H 564.1157723577235 V 282.6541176470588 H 584.2627642276423 V 289.7204705882353 H 604.409756097561 V 275.5877647058823 H 624.5567479674796 V 282.6541176470588 H 644.7037398373983 V 289.7204705882353 H 664.850731707317 V 296.7868235294117 H 684.9977235772357 V 296.7868235294117 H 705.1447154471543 V 261.4550588235294 H 725.2917073170731 V 282.6541176470588 H 745.4386991869918 V 289.7204705882353 H 765.5856910569105 V 289.7204705882353 H 785.7326829268292 V 275.5877647058823 H 805.8796747967478 V 261.4550588235294 H 826.0266666666665 V 465.64 H 0 V 282.6541176470588 Z" fill="#004350"/></g><g><path d="M 0 317.98588235294113V 303.8531764705882 H 20.146991869918697 V 317.98588235294113 H 40.293983739837394 V 317.98588235294113 H 60.440975609756094 V 303.8531764705882 H 80.58796747967479 V 296.7868235294117 H 100.73495934959348 V 296.7868235294117 H 120.88195121951219 V 317.98588235294113 H 141.02894308943087 V 325.0522352941176 H 161.17593495934958 V 317.98588235294113 H 181.32292682926828 V 325.0522352941176 H 201.46991869918696 V 296.7868235294117 H 221.61691056910567 V 325.0522352941176 H 241.76390243902438 V 317.98588235294113 H 261.91089430894306 V 296.7868235294117 H 282.05788617886174 V 325.0522352941176 H 302.2048780487805 V 317.98588235294113 H 322.35186991869915 V 325.0522352941176 H 342.49886178861783 V 339.18494117647055 H 362.64585365853657 V 339.18494117647055 H 382.79284552845525 V 296.7868235294117 H 402.9398373983739 V 317.98588235294113 H 423.08682926829266 V 303.8531764705882 H 443.23382113821134 V 303.8531764705882 H 463.38081300813 V 339.18494117647055 H 483.52780487804876 V 296.7868235294117 H 503.67479674796743 V 339.18494117647055 H 523.8217886178861 V 317.98588235294113 H 543.9687804878048 V 317.98588235294113 H 564.1157723577235 V 332.11858823529406 H 584.2627642276423 V 339.18494117647055 H 604.409756097561 V 317.98588235294113 H 624.5567479674796 V 339.18494117647055 H 644.7037398373983 V 339.18494117647055 H 664.850731707317 V 325.0522352941176 H 684.9977235772357 V 325.0522352941176 H 705.1447154471543 V 339.18494117647055 H 725.2917073170731 V 332.11858823529406 H 745.4386991869918 V 317.98588235294113 H 765.5856910569105 V 332.11858823529406 H 785.7326829268292 V 339.18494117647055 H 805.8796747967478 V 325.0522352941176 H 826.0266666666665 V 465.64 H 0 V 317.98588235294113 Z" fill="#003d50"/></g><g><path d="M 0 353.31764705882347V 367.4503529411764 H 20.146991869918697 V 360.38399999999996 H 40.293983739837394 V 367.4503529411764 H 60.440975609756094 V 374.5167058823529 H 80.58796747967479 V 353.31764705882347 H 100.73495934959348 V 339.18494117647055 H 120.88195121951219 V 353.31764705882347 H 141.02894308943087 V 353.31764705882347 H 161.17593495934958 V 360.38399999999996 H 181.32292682926828 V 374.5167058823529 H 201.46991869918696 V 353.31764705882347 H 221.61691056910567 V 353.31764705882347 H 241.76390243902438 V 374.5167058823529 H 261.91089430894306 V 339.18494117647055 H 282.05788617886174 V 374.5167058823529 H 302.2048780487805 V 332.11858823529406 H 322.35186991869915 V 339.18494117647055 H 342.49886178861783 V 339.18494117647055 H 362.64585365853657 V 374.5167058823529 H 382.79284552845525 V 339.18494117647055 H 402.9398373983739 V 346.251294117647 H 423.08682926829266 V 360.38399999999996 H 443.23382113821134 V 339.18494117647055 H 463.38081300813 V 367.4503529411764 H 483.52780487804876 V 367.4503529411764 H 503.67479674796743 V 353.31764705882347 H 523.8217886178861 V 367.4503529411764 H 543.9687804878048 V 374.5167058823529 H 564.1157723577235 V 360.38399999999996 H 584.2627642276423 V 367.4503529411764 H 604.409756097561 V 353.31764705882347 H 624.5567479674796 V 374.5167058823529 H 644.7037398373983 V 339.18494117647055 H 664.850731707317 V 332.11858823529406 H 684.9977235772357 V 367.4503529411764 H 705.1447154471543 V 374.5167058823529 H 725.2917073170731 V 353.31764705882347 H 745.4386991869918 V 367.4503529411764 H 765.5856910569105 V 353.31764705882347 H 785.7326829268292 V 353.31764705882347 H 805.8796747967478 V 367.4503529411764 H 826.0266666666665 V 465.64 H 0 V 353.31764705882347 Z" fill="#003750"/></g><g><path d="M 0 388.64941176470586V 374.51670588235294 H 20.146991869918697 V 388.64941176470586 H 40.293983739837394 V 374.51670588235294 H 60.440975609756094 V 395.71576470588235 H 80.58796747967479 V 402.7821176470588 H 100.73495934959348 V 402.7821176470588 H 120.88195121951219 V 402.7821176470588 H 141.02894308943087 V 367.45035294117645 H 161.17593495934958 V 367.45035294117645 H 181.32292682926828 V 381.58305882352937 H 201.46991869918696 V 388.64941176470586 H 221.61691056910567 V 395.71576470588235 H 241.76390243902438 V 367.45035294117645 H 261.91089430894306 V 374.51670588235294 H 282.05788617886174 V 409.8484705882353 H 302.2048780487805 V 388.64941176470586 H 322.35186991869915 V 409.8484705882353 H 342.49886178861783 V 402.7821176470588 H 362.64585365853657 V 367.45035294117645 H 382.79284552845525 V 409.8484705882353 H 402.9398373983739 V 381.58305882352937 H 423.08682926829266 V 374.51670588235294 H 443.23382113821134 V 409.8484705882353 H 463.38081300813 V 409.8484705882353 H 483.52780487804876 V 402.7821176470588 H 503.67479674796743 V 409.8484705882353 H 523.8217886178861 V 388.64941176470586 H 543.9687804878048 V 381.58305882352937 H 564.1157723577235 V 388.64941176470586 H 584.2627642276423 V 395.71576470588235 H 604.409756097561 V 409.8484705882353 H 624.5567479674796 V 381.58305882352937 H 644.7037398373983 V 388.64941176470586 H 664.850731707317 V 388.64941176470586 H 684.9977235772357 V 395.71576470588235 H 705.1447154471543 V 402.7821176470588 H 725.2917073170731 V 395.71576470588235 H 745.4386991869918 V 388.64941176470586 H 765.5856910569105 V 409.8484705882353 H 785.7326829268292 V 374.51670588235294 H 805.8796747967478 V 402.7821176470588 H 826.0266666666665 V 465.64 H 0 V 388.64941176470586 Z" fill="#003150"/></g><g><path d="M 0 423.9811764705882V 409.8484705882353 H 20.146991869918697 V 431.0475294117647 H 40.293983739837394 V 402.7821176470588 H 60.440975609756094 V 438.1138823529411 H 80.58796747967479 V 445.1802352941176 H 100.73495934959348 V 438.1138823529411 H 120.88195121951219 V 416.9148235294117 H 141.02894308943087 V 431.0475294117647 H 161.17593495934958 V 409.8484705882353 H 181.32292682926828 V 431.0475294117647 H 201.46991869918696 V 431.0475294117647 H 221.61691056910567 V 423.9811764705882 H 241.76390243902438 V 423.9811764705882 H 261.91089430894306 V 409.8484705882353 H 282.05788617886174 V 445.1802352941176 H 302.2048780487805 V 445.1802352941176 H 322.35186991869915 V 438.1138823529411 H 342.49886178861783 V 409.8484705882353 H 362.64585365853657 V 402.7821176470588 H 382.79284552845525 V 445.1802352941176 H 402.9398373983739 V 423.9811764705882 H 423.08682926829266 V 409.8484705882353 H 443.23382113821134 V 423.9811764705882 H 463.38081300813 V 423.9811764705882 H 483.52780487804876 V 423.9811764705882 H 503.67479674796743 V 431.0475294117647 H 523.8217886178861 V 416.9148235294117 H 543.9687804878048 V 431.0475294117647 H 564.1157723577235 V 431.0475294117647 H 584.2627642276423 V 438.1138823529411 H 604.409756097561 V 445.1802352941176 H 624.5567479674796 V 445.1802352941176 H 644.7037398373983 V 431.0475294117647 H 664.850731707317 V 402.7821176470588 H 684.9977235772357 V 445.1802352941176 H 705.1447154471543 V 431.0475294117647 H 725.2917073170731 V 438.1138823529411 H 745.4386991869918 V 416.9148235294117 H 765.5856910569105 V 445.1802352941176 H 785.7326829268292 V 445.1802352941176 H 805.8796747967478 V 409.8484705882353 H 826.0266666666665 V 465.64 H 0 V 423.9811764705882 Z" fill="#002b50"/></g><g><path d="M 0 459.31294117647053V 445.1802352941176 H 20.146991869918697 V 473.44564705882345 H 40.293983739837394 V 445.1802352941176 H 60.440975609756094 V 438.1138823529411 H 80.58796747967479 V 452.24658823529404 H 100.73495934959348 V 473.44564705882345 H 120.88195121951219 V 452.24658823529404 H 141.02894308943087 V 466.379294117647 H 161.17593495934958 V 445.1802352941176 H 181.32292682926828 V 445.1802352941176 H 201.46991869918696 V 459.31294117647053 H 221.61691056910567 V 459.31294117647053 H 241.76390243902438 V 445.1802352941176 H 261.91089430894306 V 459.31294117647053 H 282.05788617886174 V 480.51199999999994 H 302.2048780487805 V 473.44564705882345 H 322.35186991869915 V 459.31294117647053 H 342.49886178861783 V 459.31294117647053 H 362.64585365853657 V 466.379294117647 H 382.79284552845525 V 445.1802352941176 H 402.9398373983739 V 459.31294117647053 H 423.08682926829266 V 459.31294117647053 H 443.23382113821134 V 445.1802352941176 H 463.38081300813 V 459.31294117647053 H 483.52780487804876 V 480.51199999999994 H 503.67479674796743 V 466.379294117647 H 523.8217886178861 V 480.51199999999994 H 543.9687804878048 V 466.379294117647 H 564.1157723577235 V 473.44564705882345 H 584.2627642276423 V 480.51199999999994 H 604.409756097561 V 480.51199999999994 H 624.5567479674796 V 459.31294117647053 H 644.7037398373983 V 438.1138823529411 H 664.850731707317 V 480.51199999999994 H 684.9977235772357 V 480.51199999999994 H 705.1447154471543 V 473.44564705882345 H 725.2917073170731 V 480.51199999999994 H 745.4386991869918 V 438.1138823529411 H 765.5856910569105 V 445.1802352941176 H 785.7326829268292 V 459.31294117647053 H 805.8796747967478 V 473.44564705882345 H 826.0266666666665 V 465.64 H 0 V 459.31294117647053 Z" fill="#002550"/></g><g><path d="M 0 494.6447058823529V 494.6447058823529 H 20.146991869918697 V 515.8437647058823 H 40.293983739837394 V 480.512 H 60.440975609756094 V 501.7110588235294 H 80.58796747967479 V 473.4456470588235 H 100.73495934959348 V 501.7110588235294 H 120.88195121951219 V 501.7110588235294 H 141.02894308943087 V 494.6447058823529 H 161.17593495934958 V 480.512 H 181.32292682926828 V 508.77741176470585 H 201.46991869918696 V 515.8437647058823 H 221.61691056910567 V 515.8437647058823 H 241.76390243902438 V 515.8437647058823 H 261.91089430894306 V 494.6447058823529 H 282.05788617886174 V 494.6447058823529 H 302.2048780487805 V 473.4456470588235 H 322.35186991869915 V 508.77741176470585 H 342.49886178861783 V 494.6447058823529 H 362.64585365853657 V 494.6447058823529 H 382.79284552845525 V 480.512 H 402.9398373983739 V 473.4456470588235 H 423.08682926829266 V 501.7110588235294 H 443.23382113821134 V 501.7110588235294 H 463.38081300813 V 501.7110588235294 H 483.52780487804876 V 515.8437647058823 H 503.67479674796743 V 494.6447058823529 H 523.8217886178861 V 480.512 H 543.9687804878048 V 494.6447058823529 H 564.1157723577235 V 487.57835294117643 H 584.2627642276423 V 494.6447058823529 H 604.409756097561 V 508.77741176470585 H 624.5567479674796 V 494.6447058823529 H 644.7037398373983 V 494.6447058823529 H 664.850731707317 V 508.77741176470585 H 684.9977235772357 V 494.6447058823529 H 705.1447154471543 V 480.512 H 725.2917073170731 V 515.8437647058823 H 745.4386991869918 V 508.77741176470585 H 765.5856910569105 V 494.6447058823529 H 785.7326829268292 V 508.77741176470585 H 805.8796747967478 V 501.7110588235294 H 826.0266666666665 V 465.64 H 0 V 494.6447058823529 Z" fill="#001f50"/></g><g><path d="M 0 529.9764705882352V 551.1755294117646 H 20.146991869918697 V 508.7774117647058 H 40.293983739837394 V 508.7774117647058 H 60.440975609756094 V 515.8437647058822 H 80.58796747967479 V 529.9764705882352 H 100.73495934959348 V 537.0428235294116 H 120.88195121951219 V 544.1091764705882 H 141.02894308943087 V 529.9764705882352 H 161.17593495934958 V 515.8437647058822 H 181.32292682926828 V 537.0428235294116 H 201.46991869918696 V 508.7774117647058 H 221.61691056910567 V 544.1091764705882 H 241.76390243902438 V 529.9764705882352 H 261.91089430894306 V 522.9101176470588 H 282.05788617886174 V 551.1755294117646 H 302.2048780487805 V 551.1755294117646 H 322.35186991869915 V 522.9101176470588 H 342.49886178861783 V 529.9764705882352 H 362.64585365853657 V 508.7774117647058 H 382.79284552845525 V 544.1091764705882 H 402.9398373983739 V 544.1091764705882 H 423.08682926829266 V 551.1755294117646 H 443.23382113821134 V 529.9764705882352 H 463.38081300813 V 551.1755294117646 H 483.52780487804876 V 529.9764705882352 H 503.67479674796743 V 537.0428235294116 H 523.8217886178861 V 529.9764705882352 H 543.9687804878048 V 529.9764705882352 H 564.1157723577235 V 537.0428235294116 H 584.2627642276423 V 537.0428235294116 H 604.409756097561 V 537.0428235294116 H 624.5567479674796 V 537.0428235294116 H 644.7037398373983 V 508.7774117647058 H 664.850731707317 V 551.1755294117646 H 684.9977235772357 V 551.1755294117646 H 705.1447154471543 V 537.0428235294116 H 725.2917073170731 V 529.9764705882352 H 745.4386991869918 V 529.9764705882352 H 765.5856910569105 V 544.1091764705882 H 785.7326829268292 V 544.1091764705882 H 805.8796747967478 V 508.7774117647058 H 826.0266666666665 V 465.64 H 0 V 529.9764705882352 Z" fill="#001950"/></g><g><path d="M 0 565.3082352941176V 544.1091764705882 H 20.146991869918697 V 586.507294117647 H 40.293983739837394 V 579.4409411764706 H 60.440975609756094 V 572.374588235294 H 80.58796747967479 V 551.1755294117646 H 100.73495934959348 V 558.2418823529412 H 120.88195121951219 V 579.4409411764706 H 141.02894308943087 V 586.507294117647 H 161.17593495934958 V 586.507294117647 H 181.32292682926828 V 572.374588235294 H 201.46991869918696 V 579.4409411764706 H 221.61691056910567 V 572.374588235294 H 241.76390243902438 V 572.374588235294 H 261.91089430894306 V 565.3082352941176 H 282.05788617886174 V 565.3082352941176 H 302.2048780487805 V 558.2418823529412 H 322.35186991869915 V 572.374588235294 H 342.49886178861783 V 586.507294117647 H 362.64585365853657 V 579.4409411764706 H 382.79284552845525 V 544.1091764705882 H 402.9398373983739 V 565.3082352941176 H 423.08682926829266 V 551.1755294117646 H 443.23382113821134 V 586.507294117647 H 463.38081300813 V 572.374588235294 H 483.52780487804876 V 586.507294117647 H 503.67479674796743 V 579.4409411764706 H 523.8217886178861 V 579.4409411764706 H 543.9687804878048 V 586.507294117647 H 564.1157723577235 V 565.3082352941176 H 584.2627642276423 V 579.4409411764706 H 604.409756097561 V 565.3082352941176 H 624.5567479674796 V 565.3082352941176 H 644.7037398373983 V 544.1091764705882 H 664.850731707317 V 551.1755294117646 H 684.9977235772357 V 558.2418823529412 H 705.1447154471543 V 572.374588235294 H 725.2917073170731 V 579.4409411764706 H 745.4386991869918 V 544.1091764705882 H 765.5856910569105 V 551.1755294117646 H 785.7326829268292 V 572.374588235294 H 805.8796747967478 V 586.507294117647 H 826.0266666666665 V 465.64 H 0 V 565.3082352941176 Z" fill="#001350"/></g></svg>